/* XPM */
static char *_87b1a2bad90499ef84e0890d893ecf53CZ0FeZkQeEPQj4G[] = {
/* columns rows colors chars-per-pixel */
"40 40 229 2 ",
"   c #3B477E",
".  c #5A6D4A",
"X  c #5F7250",
"o  c #637554",
"O  c #6A7B5C",
"+  c #6E7F61",
"@  c #8E5456",
"#  c #AE5054",
"$  c #995D61",
"%  c #B75E62",
"&  c #916B66",
"*  c #946967",
"=  c #9B7874",
"-  c #A2656A",
";  c #B9696C",
":  c #A8746E",
">  c #A87676",
",  c #A27E7D",
"<  c #BB7678",
"1  c #C8676B",
"2  c #C36E72",
"3  c #C57778",
"4  c #78876B",
"5  c #808E74",
"6  c #839177",
"7  c #D28A77",
"8  c #CB907C",
"9  c #D2B077",
"0  c #E9B06D",
"q  c #EAB678",
"w  c #414D83",
"e  c #455185",
"r  c #4A5688",
"t  c #4B5789",
"y  c #525D8D",
"u  c #57628F",
"i  c #566190",
"p  c #5B6694",
"a  c #5E6995",
"s  c #606B97",
"d  c #646E99",
"f  c #66709B",
"g  c #6B749D",
"h  c #737799",
"j  c #6F78A0",
"k  c #737CA3",
"l  c #7C7FA0",
"z  c #83758B",
"x  c #B57D81",
"c  c #CC7F82",
"v  c #7780A6",
"b  c #7A81A5",
"n  c #7D85A9",
"m  c #988E8A",
"M  c #89859B",
"N  c #998995",
"B  c #A88A8A",
"V  c #BC8286",
"C  c #B98788",
"Z  c #A79499",
"A  c #BB9190",
"S  c #B99899",
"D  c #97A38E",
"F  c #9CA693",
"G  c #B6AC9C",
"H  c #838BAD",
"J  c #8E91AE",
"K  c #878FB0",
"L  c #8C93B3",
"P  c #9296B2",
"I  c #969BB7",
"U  c #959CB9",
"Y  c #999EBB",
"T  c #A69BA8",
"R  c #A39FB1",
"E  c #9CA3BD",
"W  c #ADADA9",
"Q  c #BBA4A5",
"!  c #B3BAAB",
"~  c #A3A4BC",
"^  c #A9A8BB",
"/  c #B7ADB9",
"(  c #B8B8B4",
")  c #C98689",
"_  c #C28B8D",
"`  c #D28485",
"'  c #D48A8A",
"]  c #C7938B",
"[  c #D6988B",
"{  c #C78E91",
"}  c #D68E91",
"|  c #C49292",
" . c #CB9395",
".. c #C49899",
"X. c #CC9C9C",
"o. c #D69899",
"O. c #D2A587",
"+. c #DCBB89",
"@. c #CBA296",
"#. c #D7A996",
"$. c #D9B39A",
"%. c #E3A98F",
"&. c #EABB89",
"*. c #E7BB97",
"=. c #C79EA1",
"-. c #DB9EA0",
";. c #C6A4A3",
":. c #CBA2A3",
">. c #C7AAA8",
",. c #CDAAAB",
"<. c #D2A3A4",
"1. c #DAA7A6",
"2. c #D3ABAC",
"3. c #DCABAC",
"4. c #D9B4A9",
"5. c #CAADB1",
"6. c #D5AFB0",
"7. c #CAB4B3",
"8. c #CDB4B4",
"9. c #CBBABA",
"0. c #D3B3B4",
"q. c #D8B6B5",
"w. c #D6BBBC",
"e. c #DABCBC",
"r. c #E1AAAB",
"t. c #E3BCA3",
"y. c #E3AFB1",
"u. c #E4B6B6",
"i. c #E3BABB",
"p. c #BBC5B7",
"a. c #D9C99E",
"s. c #ECC18D",
"d. c #F4CF8D",
"f. c #EDC292",
"g. c #ECC39B",
"h. c #E9C99B",
"j. c #F1CB99",
"k. c #D3D2AE",
"l. c #C3C5BB",
"z. c #DAC2B9",
"x. c #E8C8A8",
"c. c #F1CCA2",
"v. c #EAD0AE",
"b. c #F3D7A6",
"n. c #F2D2AD",
"m. c #E7C8B6",
"M. c #EAD5B8",
"N. c #F2D5B3",
"B. c #F5DCB5",
"V. c #F4DBBE",
"C. c #F8E1B9",
"Z. c #A1A7C1",
"A. c #A5AAC2",
"S. c #AAAEC6",
"D. c #AEB3CA",
"F. c #B6B6C9",
"G. c #B6B9CD",
"H. c #B9BDD0",
"J. c #C4BBC6",
"K. c #DABEC0",
"L. c #E6BFC0",
"P. c #A5DBC7",
"I. c #ABDECB",
"U. c #B9D5CC",
"Y. c #AFE1CF",
"T. c #B3E1CE",
"R. c #B4E2D2",
"E. c #BCE4D5",
"W. c #BFE6D8",
"Q. c #C9C9C5",
"!. c #D6C6C5",
"~. c #DCC4C4",
"^. c #D5CBC9",
"/. c #DDCBCB",
"(. c #C9D5CB",
"). c #D6D3CB",
"_. c #C2C5D6",
"`. c #C9C9D6",
"'. c #D6CED2",
"]. c #CED4DA",
"[. c #DDD4D4",
"{. c #D7D9D6",
"}. c #E5C7C4",
"|. c #E9C3C5",
" X c #E3CCCC",
".X c #EBCBCB",
"XX c #EAD4CB",
"oX c #F3DCC2",
"OX c #F0D2CA",
"+X c #E6CFD1",
"@X c #E5D4D3",
"#X c #EAD4D4",
"$X c #E7DCDA",
"%X c #F2DBD7",
"&X c #C2E7D9",
"*X c #C8E3D8",
"=X c #C5E9DC",
"-X c #CBEADE",
";X c #D2E4DC",
":X c #DAE4DC",
">X c #EEE1C8",
",X c #F7E2C7",
"<X c #F7E2CA",
"1X c #E8E6DC",
"2X c #F8E7D2",
"3X c #F6E7D9",
"4X c #F9ECDC",
"5X c #D7D9E3",
"6X c #E0DEE6",
"7X c #CEEBE1",
"8X c #D4ECE3",
"9X c #DCE9E4",
"0X c #DBF0E6",
"qX c #E7E7E7",
"wX c #ECE3E3",
"eX c #F3E8E4",
"rX c #FAEFE3",
"tX c #F3ECEC",
"yX c #E2F3EC",
"uX c #EBF4EE",
"iX c #F7F1E8",
"pX c #FBF3EB",
"aX c #EAEBF1",
"sX c #EEF2F0",
"dX c #F3F3F4",
"fX c #FBF6F1",
"gX c #FDF9F5",
"hX c #F5F9F8",
"jX c #FDFCFC",
/* pixels */
"d.dX`.Z.5XhXb : B P jXB.B.pX+.*XE.R.tXy.i.$XR.&X=X).V.C.j.jXZ.B : M {.aXD.D.qXd.",
"tXg A.P k U._.I Z.5XjXh.+.m.R.>.c ~.R..Xu.R.}.8.y.W.i.s.9 gXqXY L S.5Xg Y I k ].",
"k / = & B d hX3XN.+.dXo.OX/.;X} &.V ;X(.9.=X<.&.A {.).#X' hXa.n.oXjXd T & & Z a ",
"a B $.d.& H '.n.T.8X8X=Xi.^.&XA f.%.8X^.<.=X#.&.} -X(.o.E.8X;XI.N.eXd B h.h.= L ",
"g '.& = Z n tXT.l.) C qX8X} I.fX,X4X3XiX3X3XfX<XfXI.' 8X:X .C w.I.iXg 9.& = 5.H ",
"9Xu J.W H U .XE.1.x.v.i.I.3XpXN.iXm.m.$.$.$.eXv.V.iX3XI.0.O.&.A R.|._.g F.J.b D.",
"_.5XZ.k D.fX|.8XwX,.s.<X2XN.n.C o.;.2 { 3 c V ) ..x.N.oX4X&.o.1X-XL.fX].P I _.5X",
"M ].fXn.jX| u.w.E.yXgXc.pX$ ` #X; tX0.w.6.~.wX% wX1 @ iXV.pXuX=X{.-.A dXN.4XqXM ",
"S W n.&X-X*XP.i.z.1X<X..< '  Xe.~.X.qX>.5.[. .@X,.K.3.; C rX>X@Xr.P.(.-XE.c.Q Z ",
"h z.0X8X` < .XP.2Xc.* 1 wX0.X.G.J.L p E E   S.~ A.| w.tX1 > v.V.I.^.x V {.0XM.l ",
"aXoXI.5.*.g.N.fXt.X.c /.wX6.b Y E   H K Y i g S.g L 5. X~.-.{ $.iXoXg.*.o.I.V.dX",
",X4X*X~.V &.2XoXq.2.w.e.J.g n Y y d L g L k r b Y i Y A.2.w. Xe.fX2X&.) 9.E.%XB.",
"^.g.2.-XyXhXjX;.V _ X.^ g n P e a p H ~ E U f w p U u E U _ :.o.> 4XhXuXR.|.*.Q.",
"C.7 1.1.).0X+.o.{ 6.F.k K k y k ^ 8.;.X...:.0.`.k r L s G.G.X.e.' $.1X(.i.r.' N.",
"n.T.=X*Xi.c.4.q.w.5XY I y k b /.!.7 eXXXm.eX7 /.w.L s L L D.`.e. X,.s..X{.&XP.oX",
"I.$X~.:X=XoX_ < e.J.L r K f 9.i.OXQ B !.!., 8.XX3.9.P L s g `.w.; ) x.;X;Xq..XP.",
"*X` #.%.gXtX2 @XX.k r H p / ` m.Q [.F 4 4 F [.>.q.7 [.i H a p ,.~.{ }.gX*.#.C ).",
"( | c.q V...o.~.G.g H K n  .tX>.).O O 5 D o . {.9. XV I n L n D.w.X.> n.j.c.] w.",
"W.3.S fXgX#Xo.0./ S.H g z }.m.!.6 4 ! {.dXp.4 5 ^.z.XXN i n A.J.2.3.i.pXgXo.8.=X",
">.=X7X&XoX- %XX.G.n i r /.4.S [.O W [.= B [.! O ^.Q [ e.i r d U <. X- n.=X-X&XQ.",
"%X} .X|.q y.# eXk w e i '.rX, l.X ! 5., B S Q.4 ! B rX!.g p p g jX< r.0 #X-.o.%X",
"} 8X8X=X,X@ tX| _.E E f #X7 w.l.X ! !.@ = 5.p.X ! /.7 L.g b E H._ tX* <X7X8X-X<.",
"-X:X.XhX2X#X2 ~.F.A.Y s N tX,.qX4 6 ).1XqX{.D + qX;.fXZ p L E Y $X< u.oXhX0.wXE.",
"U.; %.f.N.: +X:.~   H f D.o.%XS l.X 4 D p.4 X p.Q m. .U.d n   ~ | eX@ V.N.O.2 (.",
"(.| &.q jXgX% w.:.E r g g Q 3.z.S ).+ o . O Q.>.0.4.!.k g r E ,.,.1 pXpXf.*.o.^.",
"&X2.) /.qXM.$ { eX~ A.e b K ..tXx.B 5.qX$X5.Q 4.3X:.E v r Z.~ tX{ C O.1X$XX.=.T.",
"M.Y.7XR.;X&.4.1.2.J.v S.e H P e.$Xm.z.4.2.0.t.dX3.~ g r Z.k ^ <.q.o.q 9X=X&XP.>X",
"<X` i.3.3.sX8 3 ) :.S.d E H i L /  .e.o.3.2.X.9.P y s L g S.X.0.{ 8 iXz.y.u.` n.",
"G d.i.E.8XyXiX5.q.e.0.H.b L n e s L E ^ R Y Y s e H H f A.6. X X..fXuX0XI.i.s.G ",
"b.x.p.:X' *.2XXXr.q.~.+XJ.p H L y s K k n k r p Y b p G.[. X}.-.t.4Xg.> @XP.@.b.",
"jXrX=Xq.#.c.c.pX#.C ) 0.qXJ.y Y Y w k L Y d p E H p Q.qX~.) < ] rXV.j.g.| E.rXjX",
"E c.8X~.C ] 8.&X4Xg.> 3 5.~.2.Y G.L w Z.E e L S.L 2.@X~.2 x x.V.=X#X3 o.,.-Xc.Y ",
"m T v.E.{.~.I./..X2XV.=._ { e.,.e.0.Z.J./ E 0./.2.w. .X.A 2XV.%X}.R.{.Q.&Xk.G N ",
"N D.4Xx.yXU.7.3.-X8XgX*.#X> ` [...@Xw.2.2.w.e...tX3 - #X$.jXuX&X}.6.(.yXa.2X`.N ",
"L dX].D.6Xo..X8X;Xr.s.rX<Xx.oX$ c <.' i.i.o. .2 > x.m.N.pXf.@.{.-X|.o.wXG.H.aXE ",
"dXg E J g _.y.I.=.t.f.4.=XpX2Xj.XXw.4.| ] | q. Xn.<X4XE.OX&.g.} I.1.5Xg P P g 5X",
"H ~ , @ N s jX7X X3 ' ~.-X' E.hX2XfX2X<X,X,XiX4XjXI.} -X@X> [ ;.E.jXj T & & Z f ",
"s Z 4.j.= L !.c.W.^.[.7Xl./.8X1.j.f.=X(.7.I.N.&.| qX{.8.E.U.e.T.V.M.g B x.c.= g ",
"g J., > B n dX<Xv.:XyX,.L.#X0XC 0 | :X{.~.-X) q #.$X:X|. .yXk.V.n.jXg Q = , S f ",
"5Xp './ L H aXL G.v.jXB.C.o.7X3._ } -X@X|.=X;.o.C 8X;.V.j.jXV.^ H 5XH.k J.J.k D."
};
