/* XPM */
static char *d805bd0c93a54c10d314acbe7547d2d7tNiGrhcuO99FNu4R[] = {
/* columns rows colors chars-per-pixel */
"40 40 173 2 ",
"   c None",
".  c #2C2F5C",
"X  c #25375F",
"o  c #2A3D5D",
"O  c #303258",
"+  c #343B5D",
"@  c #252A62",
"#  c #253563",
"$  c #2B3362",
"%  c #273865",
"&  c #293967",
"*  c #273768",
"=  c #2F356A",
"-  c #27396B",
";  c #293A6A",
":  c #373B60",
">  c #30356D",
",  c #36396E",
"<  c #343563",
"1  c #283770",
"2  c #263B74",
"3  c #253A79",
"4  c #3B4368",
"5  c #3B4E6C",
"6  c #515175",
"7  c #565F7C",
"8  c #5B5E7F",
"9  c #4F6179",
"0  c #5B637A",
"q  c #60617F",
"w  c #666D7F",
"e  c #636B76",
"r  c #6F787F",
"t  c #575F8E",
"y  c #576081",
"u  c #5D6386",
"i  c #56618B",
"p  c #5A648D",
"a  c #576492",
"s  c #596592",
"d  c #586498",
"f  c #6A6F83",
"g  c #716F83",
"h  c #697184",
"j  c #7F7F87",
"k  c #7B7889",
"l  c #616491",
"z  c #7F85A9",
"x  c #808185",
"c  c #8B8C92",
"v  c #8C8D9F",
"b  c #9D9D9B",
"n  c #8487A7",
"m  c #8589A3",
"M  c #848AAC",
"N  c #8F90A2",
"B  c #9194A2",
"V  c #9997A5",
"C  c #9798AA",
"Z  c #9C9BA9",
"A  c #9D9BA6",
"S  c #8C93B3",
"D  c #9199B8",
"F  c #A09CAC",
"G  c #A19EB1",
"H  c #95A1AD",
"J  c #9CA5B7",
"K  c #9AA5BD",
"L  c #AAA9A7",
"P  c #A3A2AD",
"I  c #ABA7AE",
"U  c #A7AAAF",
"Y  c #ACACAE",
"T  c #B2B1AF",
"R  c #A4A4B3",
"E  c #A8A1B2",
"W  c #A6A9B2",
"Q  c #ACABB2",
"!  c #A3A4BA",
"~  c #AAA7B8",
"^  c #A5ABBB",
"/  c #ABABBC",
"(  c #B3ADB6",
")  c #B1AEBF",
"_  c #AFB0B2",
"`  c #AEB2BD",
"'  c #B3B2B5",
"]  c #B9B9B7",
"[  c #B4B3BC",
"{  c #B9B7BC",
"}  c #B3B8BC",
"|  c #BEBCBD",
" . c #C2C1BF",
".. c #8D94C2",
"X. c #9599C4",
"o. c #9BA1C1",
"O. c #9CA1D2",
"+. c #A2A7C7",
"@. c #A2AACE",
"#. c #A8ABCC",
"$. c #B2AFC0",
"%. c #ADB3C9",
"&. c #B3B5C2",
"*. c #B9B7C5",
"=. c #BCBBC5",
"-. c #BDBDCB",
";. c #A0A7D1",
":. c #A3ABD1",
">. c #BCBDD1",
",. c #C0BFC5",
"<. c #C2BFC8",
"1. c #BEC0C4",
"2. c #BDC0CB",
"3. c #BBC1D1",
"4. c #C2C2C2",
"5. c #C8C3C7",
"6. c #C9C8C6",
"7. c #C4C4CB",
"8. c #CCCBCE",
"9. c #D2CECF",
"0. c #C4C4D2",
"q. c #CAC7D0",
"w. c #C6CAD5",
"e. c #CDCCD5",
"r. c #C6CDDD",
"t. c #CECEDC",
"y. c #D0CDD6",
"u. c #CFD3D6",
"i. c #D3D2D6",
"p. c #D4D3DB",
"a. c #D8D7DF",
"s. c #D8D9D8",
"d. c #EEECDC",
"f. c #F4E7DF",
"g. c #F4EADE",
"h. c #C7CBE8",
"j. c #CDD4E3",
"k. c #DFDEE6",
"l. c #DEDFEB",
"z. c #D3D9E9",
"x. c #E1DEE7",
"c. c #DDE2EB",
"v. c #DEEFFF",
"b. c #E4E2E4",
"n. c #E7E8E3",
"m. c #EDEEE2",
"M. c #E3E3EB",
"N. c #E5E8EF",
"B. c #EBEEEA",
"V. c #F5EBE2",
"C. c #FBEEE4",
"Z. c #F3EDEB",
"A. c #EAF0E5",
"S. c #EEF0E3",
"D. c #EFF2ED",
"F. c #F1F3E7",
"G. c #F3F2E4",
"H. c #F3F2ED",
"J. c #E4E7F3",
"K. c #E1EEF6",
"L. c #EBEDFC",
"P. c #E3E9F9",
"I. c #F7EEF1",
"U. c #E2F4FF",
"Y. c #EEF2FD",
"T. c #EEF2F3",
"R. c #F3F4F3",
"E. c #FCF3F3",
"W. c #FDFBF1",
"Q. c #F4F5FF",
"!. c #F8F7FF",
"~. c #F6FBFF",
"^. c #FBFCFF",
/* pixels */
"                                                                                ",
"                                                                                ",
"                                                                                ",
"                                                                                ",
"                                    ..O.O.X.X.h.                                ",
"                                  $ = > @ , . 8                                 ",
"                                  + + 4 + : + m                                 ",
"                                    j.r.j.z.t.L.                                ",
"                                    A.A.B.B.D.                                  ",
"                                    F.S.S.F.                                    ",
"                                    p.p.i.i.                                    ",
"                                    E E E P P                                   ",
"                                  G R F F P Z /                                 ",
"                                [ =.[ ~ ~ ) *.[                                 ",
"                              j i.u.q./ / 0.t.p.c                               ",
"                              c 7.} 2.B N -.&.q.x s.                            ",
"                            Q t.W &.^ B v C -.W 7.' R.                          ",
"                          e.7.e.0.>.^ C B P 0.-.e.a.,.                          ",
"                        p.P 7.e.0.! >.G C -.~ =.p.<.Q 8.                        ",
"                      x.( ( I q.P Z 0.Z V e.Z A 7.I [ ' p.                      ",
"                    k.y.b.' 5.p.7.&.M.W P N.[ 7.p.q.Q b.8.b.                    ",
"                  ^.{ 5.' b.9.| i.N.U 1.=.Y N.p.4.5.B.' 4.4.                    ",
"                  n.L  .T | 6.Y 1.[ ' Y _ ' ' 4.Y 4.4.] 4.b R.                  ",
"                R.T.Q M.p.7.q.l.` w.J.2.w.M.w.` M.2.7.p.M.W Y.                  ",
"                ^ J J K K S M z S D o.o.o.o.D S n M S o.o.o.+.%.                ",
"              ^ 0 7 y p p s t t i p p i i p p i i i i p p i i u 3.              ",
"          !.L.+.:.:.:.:.:.;.@.:.@.:.@.@.@.@.:.@.:.@.@.@.:.:.:.@.#.!.            ",
"        Y.n u s d d d d a i a s i p s p s p p i s p p i p s s p l u n !.        ",
"        U.5 % ; 2 2 3 3 3 2 2 2 2 2 2 2 2 2 2 2 2 2 2 2 2 2 2 1 = < 6 L.        ",
"        v.9 o X & & - - & * % % & & % % % % & & # % & & & & & & $ O q Q.        ",
"          !.J.J.l.l.l.M.M.b.b.b.x.M.M.M.M.M.M.k.M.M.M.M.M.l.l.c.P.Y.L.          ",
"              ^.Z.Z.V.V.g.f.g.g.V.V.V.V.V.V.V.V.V.V.f.V.V.V.V.Z.                ",
"                W.m.F.m.d.d.G.d.g.g.g.g.V.V.V.V.f.C.g.g.C.g.g.W.                ",
"                  H.m.H.H.H.B.H.H.H.H.H.Z.Z.I.I.E.Z.E.Z.V.V.W.                  ",
"                      !.Z k g g f h h h h h h h w h e r c.                      ",
"                        $.G ! ! K K K K K K K K J J H H K.                      ",
"                          ^.!.^.!.~.~.~.~.~.~.~.^.!.^.^.                        ",
"                                                                                ",
"                                                                                ",
"                                                                                "
};
