/* XPM */
static char *a03fa34b7d8644bdc3a0b715d1920b12IpZgsa0Wo1tG5aEn[] = {
/* columns rows colors chars-per-pixel */
"40 40 98 2 ",
"   c #1F367C",
".  c #21377E",
"X  c #22397E",
"o  c #273D80",
"O  c #283E81",
"+  c #384C89",
"@  c #3D508D",
"#  c #465891",
"$  c #4B5D94",
"%  c #556496",
"&  c #57679A",
"*  c #626E9B",
"=  c #64709D",
"-  c #727CA3",
";  c #7D86A7",
":  c #7986AF",
">  c #7D8AB1",
",  c #828AA9",
"<  c #888FAD",
"1  c #8D93AE",
"2  c #8E95B1",
"3  c #9196B0",
"4  c #949AB2",
"5  c #999EB5",
"6  c #939EBE",
"7  c #9EA1B6",
"8  c #99A0B9",
"9  c #A0A3B6",
"0  c #A3A5B8",
"q  c #A6A8BA",
"w  c #AAABBC",
"e  c #AFB0BE",
"r  c #B1B2BF",
"t  c #9AA4C2",
"y  c #A0AAC6",
"u  c #ADB0C0",
"i  c #ACB4CB",
"p  c #B4B5C1",
"a  c #B9B7C2",
"s  c #B6B9C5",
"d  c #BBBBC4",
"f  c #B5B8CA",
"g  c #BBBBC8",
"h  c #C0BEC5",
"j  c #BAC0D0",
"k  c #C2C1C7",
"l  c #C5C4C9",
"z  c #C9C6CA",
"x  c #CCCACC",
"c  c #D2CECE",
"v  c #D4D1CF",
"b  c #CDCDD0",
"n  c #C3C9DB",
"m  c #C9CEDE",
"M  c #D5D2D2",
"N  c #D9D4D2",
"B  c #DAD8D4",
"V  c #D5D6DC",
"C  c #DEDCDB",
"Z  c #E3DDD6",
"A  c #E6E2D9",
"S  c #E8E2D8",
"D  c #F4ECDD",
"F  c #F5ECDD",
"G  c #F9EFDF",
"H  c #F9F0DF",
"J  c #E1DFE0",
"K  c #E0E1E7",
"L  c #E9E7E5",
"P  c #E3E5EA",
"I  c #E7E8EC",
"U  c #E9EAEB",
"Y  c #E9E9EC",
"T  c #ECECEF",
"R  c #F3EDE0",
"E  c #F5EFE1",
"W  c #F9EFE0",
"Q  c #F7F0E5",
"!  c #F9F0E0",
"~  c #F3F0EA",
"^  c #F4F0E8",
"/  c #FAF5EA",
"(  c #FAF6EF",
")  c #E9EBF1",
"_  c #EFEFF1",
"`  c #EEF0F3",
"'  c #F1F2F3",
"]  c #F5F5F7",
"[  c #FBF7F0",
"{  c #FBF9F5",
"}  c #FCFCF7",
"|  c #F7F7F8",
" . c #F7F8F9",
".. c gray98",
"X. c #FBFBFA",
"o. c #FCFCFB",
"O. c #FBFBFC",
"+. c white",
/* pixels */
"+.+.+.+.+.+.+.+.+.+.+.+.+.+.+.+.+.+.+.+.+.+.+.+.+.+.+.+.+.+.+.+.+.+.+.+.+.+.+.+.",
"+.+.+.+.+.+.+.+.+.+.+.+.+.+.+.+.+.+.+.+.+.+.+.+.+.+.+.+.+.+.+.+.+.+.+.+.+.+.+.+.",
"+.+.+.+.+.+.+.+.+.+.+.+.+.+.+.+.+.+.+.+.+.+.+.+.+.+.+.+.+.+.+.+.+.+.+.+.+.+.+.+.",
"+.+.+.+.+.+.+.+.+.+.+.+.+.+.+.+.+.+.+.+.+.+.+.+.+.+.+.+.+.+.+.+.+.+.+.+.+.+.+.+.",
"+.+.+.+.+.+.+.+.+.+.+.+.+.+.+.+.) t 6 6 6 6 6 m o.+.+.+.+.+.+.+.+.+.+.+.+.+.+.+.",
"+.+.+.+.+.+.+.+.+.+.+.+.+.+.+...y   . . . . . $ O.+.+.+.+.+.+.+.+.+.+.+.+.+.+.+.",
"+.+.+.+.+.+.+.+.+.+.+.+.+.+.+.+.n O o o o o o : +.+.+.+.+.+.+.+.+.+.+.+.+.+.+.+.",
"+.+.+.+.+.+.+.+.+.+.+.+.+.+.+.+...B v v v v M _ +.+.+.+.+.+.+.+.+.+.+.+.+.+.+.+.",
"+.+.+.+.+.+.+.+.+.+.+.+.+.+.+.+.+.( F F F F Q +.+.+.+.+.+.+.+.+.+.+.+.+.+.+.+.+.",
"+.+.+.+.+.+.+.+.+.+.+.+.+.+.+.+.+.o.F F F F [ ..+.+.+.+.+.+.+.+.+.+.+.+.+.+.+.+.",
"+.+.+.+.+.+.+.+.+.+.+.+.+.+.+.+...C N N N N C ..+.+.+.+.+.+.+.+.+.+.+.+.+.+.+.+.",
"+.+.+.+.+.+.+.+.+.+.+.+.+.+.+...K 0 7 7 7 7 9 V +.+.+.+.+.+.+.+.+.+.+.+.+.+.+.+.",
"+.+.+.+.+.+.+.+.+.+.+.+.+.+...| u 7 7 7 7 7 7 0 ' ..+.+.+.+.+.+.+.+.+.+.+.+.+.+.",
"+.+.+.+.+.+.+.+.+.+.+.+.+.+...f p a w e 0 e d p s  ...+.+.+.+.+.+.+.+.+.+.+.+.+.",
"+.+.+.+.+.+.+.+.+.+.+.+.+..._ - M N z w w z M c , Y ..+.+.+.+.+.+.+.+.+.+.+.+.+.",
"+.+.+.+.+.+.+.+.+.+.+.+...o.M , l p k 1 2 p a x ; x o...+.+.+.+.+.+.+.+.+.+.+.+.",
"+.+.+.+.+.+.+.+.+.+.+.+...( p x 0 p q 1 1 4 d w z w / ..+.+.+.+.+.+.+.+.+.+.+.+.",
"+.+.+.+.+.+.+.+.+.+.+...{ c z c z d w 3 3 0 z h v v k { ..+.+.+.+.+.+.+.+.+.+.+.",
"+.+.+.+.+.+.+.+.+.+... .N q k c d w s 7 5 p w p v k e b ....+.+.+.+.+.+.+.+.+.+.",
"+.+.+.+.+.+.+.+.+.+...J e e 0 x 7 5 x 4 2 c 5 5 x 0 p w V ..+.+.+.+.+.+.+.+.+.+.",
"+.+.+.+.+.+.+.+.+...P x Z w x N z w S q q S e l N c w Z x I ..+.+.+.+.+.+.+.+.+.",
"+.+.+.+.+.+.+.+...| d k p F x d v F q d d 0 R N d z F p l g ....+.+.+.+.+.+.+.+.",
"+.+.+.+.+.+.+.+...^ 0 k w d z w d p e e r r r k e k d e k 7 ~ ..+.+.+.+.+.+.+.+.",
"+.+.+.+.+.+.+...} E w A B k l Z p x S k z S x p A k k N S q E o...+.+.+.+.+.+.+.",
"+.+.+.+.+.+.+.| w 7 7 7 7 3 , ; < 4 7 7 7 7 4 < , , 4 9 0 7 0 s ..+.+.+.+.+.+.+.",
"+.+.+.+.+.+.+.t % % % % % % % % % % % % % % % % % % % % % % % % j ..+.+.+.+.+.+.",
"+.+.+.+.+...T w w w w w w w w w w w w w w w w w w w w w w w w w u ] ..+.+.+.+.+.",
"+.+.+.+.] : & % % % % % % % % % % % % % % % % % % % % % % % % % % & > | +.+.+.+.",
"+.+.+.+.) + X X X X X X X X X X X X X X X X X X X X X X X X X X X X @ ` +.+.+.+.",
"+.+.+.+.' # X X X X X X X X X X X X X X X X X X X X X X X X X X . X $ ] +.+.+.+.",
"+.+.+.+.+.| _ L S S S S S S S S S S S S S S S S S S S S S S S S L _ | +.+.+.+.+.",
"+.+.+.+.+.+.+.o.F F F F F F F F F F F F F F F F F F F F F F F F o.+.+.+.+.+.+.+.",
"+.+.+.+.+.+.+.+.{ F F F F F F F F F F F F F F F F F F F F F F { +.+.+.+.+.+.+.+.",
"+.+.+.+.+.+.+.+.+.{ Q F F G G G G G W W W ! ! ! ! ! H G F E { +.+.+.+.+.+.+.+.+.",
"+.+.+.+.+.+.+.+.+.+.+...8 = = = = * * * * * * * * * * * U +.+.+.+.+.+.+.+.+.+.+.",
"+.+.+.+.+.+.+.+.+.+.+.+.i t t t t t t t t t t t t t t t P +.+.+.+.+.+.+.+.+.+.+.",
"+.+.+.+.+.+.+.+.+.+.+.+.+.+.+.+.+.+.+.+.+.+.+.+.+.+.+.+.+.+.+.+.+.+.+.+.+.+.+.+.",
"+.+.+.+.+.+.+.+.+.+.+.+.+.+.+.+.+.+.+.+.+.+.+.+.+.+.+.+.+.+.+.+.+.+.+.+.+.+.+.+.",
"+.+.+.+.+.+.+.+.+.+.+.+.+.+.+.+.+.+.+.+.+.+.+.+.+.+.+.+.+.+.+.+.+.+.+.+.+.+.+.+.",
"+.+.+.+.+.+.+.+.+.+.+.+.+.+.+.+.+.+.+.+.+.+.+.+.+.+.+.+.+.+.+.+.+.+.+.+.+.+.+.+."
};
