/* XPM */
static char *_dbbc87cc2cc41ca831511dab6444ab96AvGXb1uSWAdRe3M[] = {
/* columns rows colors chars-per-pixel */
"40 40 111 2 ",
"   c None",
".  c #4E321D",
"X  c #53321B",
"o  c #5F361C",
"O  c #5F391D",
"+  c #653716",
"@  c #663817",
"#  c #663719",
"$  c #663A1B",
"%  c #6B3D1D",
"&  c #723F1C",
"*  c #4F3421",
"=  c #543622",
"-  c #593620",
";  c #553A25",
":  c #593924",
">  c #563B28",
",  c #623D23",
"<  c #6D3F21",
"1  c #723F20",
"2  c #6E401F",
"3  c #75421E",
"4  c #78431E",
"5  c #534031",
"6  c #594230",
"7  c #674023",
"8  c #6D4123",
"9  c #6F4827",
"0  c #65432C",
"q  c #6C452A",
"w  c #6D482D",
"e  c #744423",
"r  c #794523",
"t  c #754827",
"y  c #7B4825",
"u  c #72462A",
"i  c #74492B",
"p  c #79492A",
"a  c #664632",
"s  c #6A4633",
"d  c #664A34",
"f  c #684833",
"g  c #6B4930",
"h  c #6D4931",
"j  c #684934",
"k  c #694837",
"l  c #6D4A34",
"z  c #6F4D34",
"x  c #6B4934",
"c  c #6A4A3B",
"v  c #6E4B38",
"b  c #6A4E39",
"n  c #694F3A",
"m  c #6C4D3B",
"M  c #704731",
"N  c #704B31",
"B  c #744A32",
"V  c #774A33",
"C  c #714C32",
"Z  c #744C32",
"A  c #704C36",
"S  c #765338",
"D  c #76553F",
"F  c #684C40",
"G  c #6D5241",
"H  c #6B5347",
"J  c #705544",
"K  c #745845",
"L  c #7F5D45",
"P  c #745E48",
"I  c #7F5F4E",
"U  c #81553C",
"Y  c #855C40",
"T  c #845D40",
"R  c #8B5F46",
"E  c #816651",
"W  c #8A7969",
"Q  c #947764",
"!  c #947964",
"~  c #957964",
"^  c #9B7C66",
"/  c #907B6C",
"(  c #937C6C",
")  c #997C6C",
"_  c #997E6F",
"`  c #9A7D6A",
"'  c #927E73",
"]  c #96806F",
"[  c #9C816E",
"{  c #9A806F",
"}  c #8C8073",
"|  c #928175",
" . c #998272",
".. c #96867B",
"X. c #998679",
"o. c #988A7F",
"O. c #A28773",
"+. c #A18675",
"@. c #A28975",
"#. c #A78A7A",
"$. c #AB907B",
"%. c #A98D82",
"&. c #A09080",
"*. c #AB9387",
"=. c #BFA192",
"-. c #BBA79E",
";. c #BAB1AA",
":. c #CFC2B2",
">. c #FAEEE0",
",. c #FDF4EB",
"<. c #FFF9EF",
/* pixels */
"                                                                                ",
"                                                                                ",
"                                                                                ",
"                                  S f 0 a d G                                   ",
"                              f i u e e q q w A s                               ",
"                          a 0 7 e 3 3 e e 8 8 8 u 0 a                           ",
"                      K l w q p e u r e e r r e p < i h                         ",
"                    n z q e p 1 e u u e 3 r r 3 & y u 8 C D                     ",
"                  P 0 i u & r 3 e e e 8 e e r 4 & 4 & u u q L                   ",
"                  d w e e 4 4 3 e e e 8 e e r 4 3 4 3 e 8 q w O.                ",
"                = , t e 3 r 3 3 r e e e e e r 4 r 3 y e 8 w , =                 ",
"              / X q e r 3 3 3 3 3 3 3 3 e e r e r 3 u e q q 0 . '               ",
"              G 0 i & r 3 3 2 3 3 3 3 3 e e e e e e e e e 7 i 0 H               ",
"              m w t 3 4 & r t 8 3 3 e e e e e e e t u % u 8 t w F               ",
"              v u r r 4 3 t 9 9 e e e 8 < e e e u t y 3 4 4 e e c -.            ",
"            %.s u e 4 3 r e 7 t e e e 8 < e e e t & r r 3 4 3 e s *.            ",
"            _ M e e e e e e e e r r r e 3 e u u u r e e e e e e N [             ",
"            _ V e e u u e e r u r r r 3 3 3 r r u u r e r r u e q !             ",
"            #.0 e e r r e e u u u u u e e e r r u r r e r e u e w $.            ",
"            =.u e e e r e e r r e r r 3 e e r e r e e e e r e e w               ",
"              V e e r r e e r r e e e 8 2 e r 3 u u r r r r r e Z               ",
"              U e r r r e e r u e t u e 8 u u r t u u u u u r e Y               ",
"              R e 3 r r e e r u e i e % % e t u u r e e e r r e Y               ",
"            I u e 3 e 3 e e e r e e 2 + + % e e e e e e e e 3 e i E             ",
"            k u r 3 r r u u u u t e 8 < % 2 e e u y e e u u t e u n             ",
"            a u r 3 3 r r u r e 8 % % $ + @ % % 3 e u t u u r u 8 k ,.          ",
"            f u r 3 4 r r r e e 8 8 8 % + @ % % % @ e 3 & & @ e e f <.          ",
"            l t r 3 r r r u e e t t e % @ % e e p % e 3 e u % e u h >.          ",
"            k u r 4 r r t u e e u u e % @ % e u e + % % < e # e e w :.          ",
"            s e 3 4 4 r r u e e e e u 8 % e u e e 2 i i u e % t e q &.          ",
"          } s u 3 4 4 r r u u u e u t e 8 u p e e e e e e < % 3 r q (           ",
"          ..k u r 4 4 4 t t t y r u u 3 % e p e p e @ % e u u e y w  .          ",
"            k u u t r r r y y r r t r e e u t r t % < < 8 < $ e e q @.          ",
"           .0 w 8 u r r 4 3 3 3 e r r e 3 r r e u 2 e e t e < e i w +.          ",
"          { : , $ e t y r r r y r t u e e u t u t 8 e u u 8 $ $ O =  .          ",
"          ( . X o < e u u u t p u u e e e e u u i 8 8 q q 7 o o - * |           ",
"          X.6 > 0 w w w w w w q u e e 8 8 u u u q 7 7 7 0 0 , , > 5 o.          ",
"            } W ] ] _ ) ) _ ) ^ ^ ^ ^ ^ ^ ^ ^ ^ ) Q ! Q ! ^ Q ) ( | ;.          ",
"                                                                                ",
"                                                                                "
};
