/* XPM */
static char *_46b27ef816140dbf7d91fedb64d7ce4ZYFqGa0PSjqNvfId[] = {
/* columns rows colors chars-per-pixel */
"40 30 188 2 ",
"   c None",
".  c #63413F",
"X  c #7C4133",
"o  c #575350",
"O  c #745A43",
"+  c #655554",
"@  c #7E5551",
"#  c #6C6256",
"$  c #7D7077",
"%  c #85453B",
"&  c #A3623C",
"*  c #8F4D43",
"=  c #8A5C45",
"-  c #AC6B49",
";  c #AD744C",
":  c #BF774F",
">  c #B6704C",
",  c #A0795C",
"<  c #826561",
"1  c #9F6F6B",
"2  c #85726B",
"3  c #9F7867",
"4  c #8A787C",
"5  c #957672",
"6  c #A36C67",
"7  c #A0706C",
"8  c #B57C61",
"9  c #C17C55",
"0  c #8F8079",
"q  c #86867A",
"w  c #95807F",
"e  c #96887B",
"r  c #A78667",
"t  c #AD8669",
"y  c #B88766",
"u  c #BE8A6C",
"i  c #B38265",
"p  c #A98B77",
"a  c #AC8A7A",
"s  c #BA8E76",
"d  c #B58C78",
"f  c #BF9370",
"g  c #BA987F",
"h  c #B7967D",
"j  c #C6855D",
"k  c #C98656",
"l  c #D4865A",
"z  c #D88A5C",
"x  c #D3925C",
"c  c #E19359",
"v  c #C78660",
"b  c #CD8C66",
"n  c #CA8B6A",
"m  c #D58C64",
"M  c #DC8D61",
"N  c #D48F68",
"B  c #D88F6C",
"V  c #C5916C",
"C  c #CB926C",
"Z  c #DD9364",
"A  c #D5946D",
"S  c #DD936B",
"D  c #D39568",
"F  c #C18E77",
"G  c #CA9573",
"H  c #C5947C",
"J  c #C89679",
"K  c #D39574",
"L  c #D29E7E",
"P  c #DC9F7C",
"I  c #D99975",
"U  c #E49262",
"Y  c #E19861",
"T  c #E2966C",
"R  c #E19E75",
"E  c #C6A47D",
"W  c #707491",
"Q  c #867680",
"!  c #827F9A",
"~  c #837E94",
"^  c #888789",
"/  c #988989",
"(  c #9C918D",
")  c #8C8599",
"_  c #978895",
"`  c #9B929A",
"'  c #9D959A",
"]  c #A48B85",
"[  c #B68F80",
"{  c #AB9484",
"}  c #BB9E87",
"|  c #A99491",
" . c #AB9D94",
".. c #B69B95",
"X. c #BC9C99",
"o. c #B9A69D",
"O. c #8A89AA",
"+. c #8C92AC",
"@. c #9492A0",
"#. c #A09BB2",
"$. c #BDA5A2",
"%. c #A6AFBE",
"&. c #A9AFBF",
"*. c #CC9D84",
"=. c #CC9F88",
"-. c #C19685",
";. c #D39D81",
":. c #C59F96",
">. c #CCA48C",
",. c #CDA184",
"<. c #DDA582",
"1. c #D7A586",
"2. c #CDA493",
"3. c #C7A69D",
"4. c #CFAF9B",
"5. c #C8A797",
"6. c #DAAD9B",
"7. c #D3AA95",
"8. c #C5B09D",
"9. c #DFB294",
"0. c #D6B69F",
"q. c #D7BA9D",
"w. c #E0AB8C",
"e. c #E0B08C",
"r. c #E3AE93",
"t. c #ECBD9E",
"y. c #E1B69C",
"u. c #F4BC97",
"i. c #C4AAA7",
"p. c #D1AFA6",
"a. c #D6A7A3",
"s. c #C2B8AF",
"d. c #C9B8AF",
"f. c #C8B3AA",
"g. c #DBB4A3",
"h. c #D2B8A4",
"j. c #D9B5A9",
"k. c #DCBBAA",
"l. c #D5B8A8",
"z. c #C5B7B6",
"x. c #C6BEBC",
"c. c #CABDBA",
"v. c #C8BBB5",
"b. c #D2B6B1",
"n. c #D7BBB7",
"m. c #DABDB6",
"M. c #D3BFBB",
"N. c #D9BEB8",
"B. c #DCB5B0",
"V. c #E3BEAE",
"C. c #CAC0BF",
"Z. c #D5C4BC",
"A. c #DDC2BC",
"S. c #DBC6B6",
"D. c #FDCCAF",
"F. c #EBCAB5",
"G. c #E1C5BC",
"H. c #E6C8BE",
"J. c #ECCCBD",
"K. c #F2CCB5",
"L. c #FCD3B5",
"P. c #CDC9CA",
"I. c #DBC2C1",
"U. c #DBC9C4",
"Y. c #D2C7C2",
"T. c #D7D6D1",
"R. c #D3D6DD",
"E. c #E4C4C1",
"W. c #E5C8C5",
"Q. c #EDCBC4",
"!. c #E9CFCC",
"~. c #F0CFC8",
"^. c #E4D1C5",
"/. c #EAD4CA",
"(. c #F7DBC9",
"). c #E9DCD4",
"_. c #D6E0DF",
"`. c #FEE2CD",
"'. c #EDE2DD",
"]. c #FCE6D8",
"[. c #F9E6D9",
"{. c #FEF8DE",
"}. c #FFF3DD",
"|. c #ECEAE6",
" X c #FEF6EE",
".X c #FEF3E1",
"XX c #F2F7F0",
"oX c #FCF8F5",
/* pixels */
"                                                                                ",
"                                                                                ",
"                                                                                ",
"                                                   X                            ",
"                                                p.[ V.                          ",
"                                v.              g.F = 3 '.                      ",
"                      ' $ 4 w 5 2 s.oX          i u , a ]                       ",
"                    R.@.) _ 4 i.Z.Z.T.|.        V ; r                           ",
"                XX_.%.+.O.#.` z.Z.Y.o P.oX    (.N A q.      @ 1                 ",
"               Xq ^ &.W O.! ^ c./.e 0 Z...J.K.C Z j S.      6 a.                ",
"              S.o.# ` ) ! ~ `  .8.O g.6.H K k Y U I       $.* %                 ",
"            Q.h 7.} $./ ` Q | { h t r.<.m M c c k y.      X.* X d.              ",
"            g.F G L 6.2.p.3.k.t f C R T z U c x E       '.~.2.d S.|.            ",
"            9.K A A n 8 F *.,.y C A Z z T S b q.        M.Q.K.F.f.).            ",
"          `.,.n B S N & C G V ; ; R m S ; g.            E.7 j.p a /.            ",
"          4.i b S S K I <.e.9.t.u.D S 9 u               X.1 j.k.:.E.            ",
"          p ;.> M S J             P l : ].              . B.H.G.m.Z.            ",
"          (.t.- l j F.            L m v               x.< Q.A.N.b.M.            ",
"          .Xr.n I G  X            =.P J               C.5 Q.m.G.m.f.            ",
"          ~.s D.<.7.              2.r.*.              ( ] E.G.A.n.o.            ",
"          ^.h   1.>.              -.w.H               / ..Q.G.m.N.o.            ",
"          ].>.  L.g               2.D.>.              ( X.Q.m.A.W.|             ",
"            4.  {.5.              g.].0.              + i.E.A.b.W.]             ",
"            h.].  l.              j.}.h.              x.I.b.W.f.I.c.            ",
"                                  4.  } '.                !.  U.I.              ",
"                                  U.^.                    Y.                    ",
"                                                                                ",
"                                                                                ",
"                                                                                ",
"                                                                                "
};
