/* XPM */
static char *b56f50b8aae04e3ca5e58aaf67a68780RY0PjsesJ08lcdNv[] = {
/* columns rows colors chars-per-pixel */
"40 30 188 2 ",
"   c None",
".  c #63413F",
"X  c #7C4133",
"o  c #575350",
"O  c #60514E",
"+  c #745A43",
"@  c #7E5551",
"#  c #6C6256",
"$  c #7E7069",
"%  c #7D7077",
"&  c #85453B",
"*  c #A3623C",
"=  c #8F4D43",
"-  c #8A5C45",
";  c #AC6B49",
":  c #AD744C",
">  c #BF774F",
",  c #B6704C",
"<  c #A0795C",
"1  c #826561",
"2  c #9F6F6B",
"3  c #84736D",
"4  c #9F7867",
"5  c #877678",
"6  c #957672",
"7  c #A36C67",
"8  c #A0706C",
"9  c #B57C61",
"0  c #C17C55",
"q  c #8F8079",
"w  c #86867A",
"e  c #95807F",
"r  c #96887B",
"t  c #A78667",
"y  c #AD8669",
"u  c #B88766",
"i  c #BE8A6C",
"p  c #B38265",
"a  c #BE996D",
"s  c #A98B77",
"d  c #AC8A7A",
"f  c #BA8E76",
"g  c #B58C78",
"h  c #BF9370",
"j  c #BA987F",
"k  c #B7967D",
"l  c #C6855D",
"z  c #C98758",
"x  c #D4865A",
"c  c #D88A5C",
"v  c #D3925C",
"b  c #E19359",
"n  c #C78660",
"m  c #CA8B6A",
"M  c #CD8964",
"N  c #D58C64",
"B  c #DC8D61",
"V  c #D48F68",
"C  c #D88F6C",
"Z  c #C5916C",
"A  c #CB926C",
"S  c #DD9364",
"D  c #D5946D",
"F  c #DD936B",
"G  c #D39568",
"H  c #C18E77",
"J  c #CA9573",
"K  c #C5947C",
"L  c #C89679",
"P  c #D39574",
"I  c #D29E7E",
"U  c #DC9F7C",
"Y  c #D99975",
"T  c #E49262",
"R  c #E2966C",
"E  c #E19861",
"W  c #E19E75",
"Q  c #D3A67F",
"!  c #707491",
"~  c #867680",
"^  c #827F9A",
"/  c #837E94",
"(  c #888789",
")  c #978689",
"_  c #8C8599",
"`  c #978895",
"'  c #9B929A",
"]  c #9D959A",
"[  c #A58683",
"{  c #A68985",
"}  c #B68F80",
"|  c #A9908F",
" . c #A79389",
".. c #BB9E87",
"X. c #B29B8C",
"o. c #A99491",
"O. c #A69993",
"+. c #B69B95",
"@. c #BB9592",
"#. c #BBA29E",
"$. c #BAA89C",
"%. c #8A89AA",
"&. c #8C92AC",
"*. c #9492A0",
"=. c #A09BB2",
"-. c #BDA7A4",
";. c #A6AFBE",
":. c #A9AFBF",
">. c #CC9D84",
",. c #CC9F88",
"<. c #C69389",
"1. c #D39D81",
"2. c #C59F96",
"3. c #CCA48C",
"4. c #CDA184",
"5. c #DDA582",
"6. c #DCAA8A",
"7. c #D5A287",
"8. c #CDA493",
"9. c #CDAE9B",
"0. c #C6A598",
"q. c #D2AB94",
"w. c #DAAD9B",
"e. c #D3A894",
"r. c #CFB497",
"t. c #C8B09B",
"y. c #DFB294",
"u. c #D6B69F",
"i. c #E0AB8C",
"p. c #E0B08C",
"a. c #E3AE93",
"s. c #ECBD9E",
"d. c #F4BC97",
"f. c #C4AAA7",
"g. c #C9ADAB",
"h. c #D1AFA6",
"j. c #CDB5A4",
"k. c #C9B1AD",
"l. c #C2B8AF",
"z. c #C5B2AC",
"x. c #DAB5A4",
"c. c #D9B5A9",
"v. c #DCBBAA",
"b. c #D5B8A6",
"n. c #C7BBB7",
"m. c #D2B6B1",
"M. c #D7BBB7",
"N. c #DABDB6",
"B. c #D9BEB8",
"V. c #D7BAB4",
"C. c #E3BEAE",
"Z. c #E0B7B7",
"A. c #D5C4BC",
"S. c #DDC2BC",
"D. c #DCC7B7",
"F. c #FDCCAF",
"G. c #F4CBAF",
"H. c #EBCAB5",
"J. c #E1C5BC",
"K. c #E4CABD",
"L. c #ECCCBD",
"P. c #F3CCB6",
"I. c #FBD5B9",
"U. c #CDC9CA",
"Y. c #DDC2C1",
"T. c #D4C6C0",
"R. c #D7D6D1",
"E. c #D3D6DD",
"W. c #E5C5C2",
"Q. c #E5C8C5",
"!. c #EDCBC4",
"~. c #E7CBC8",
"^. c #F0CFC8",
"/. c #E7D0C2",
"(. c #EAD4CA",
"). c #F9DBC7",
"_. c #E9DCD4",
"`. c #D6E0DF",
"'. c #FEE2CD",
"]. c #ECE8DF",
"[. c #FDE7D6",
"{. c #FFF6DD",
"}. c #EAECEB",
"|. c #FFEFE3",
" X c #FFF3E4",
".X c #FFF7EE",
"XX c #F2F7F0",
"oX c #FAF7F5",
/* pixels */
"                                                                                ",
"                                                                                ",
"                                                                                ",
"                             X                                                  ",
"                          C.} h.                                                ",
"                      J.4 - H e.              n.                                ",
"                      { d < i p           oXl.3 6 e 5 % ]                       ",
"                          t : Z         }.R.A.A.f.5 ` _ *.E.                    ",
"                2 @       r.D V P.    oXU.o T.A.n.' =.%.&.;.`.XX                ",
"                <.7       t.l S A G.L.+.A.q r (.n.( ^ %.! :.( w .X              ",
"                & = [       Y T E z P K w.x.+ t.O.' / ^ _ ' # $.D.              ",
"              X.X = @.      6.z b b B N 5.a.y k  .o.~ ' ) -...q.k !.            ",
"            ].D.g 8.^.T.      a v b T c R W A h y v.0.h.8.w.I J H x.            ",
"            _.j.H.P.!.g.        Q l F R c S D A u 4.>.H 9 m D D P y.            ",
"            (.d s c.8 Z.            7.: F N W : : Z J A * V F D m 7.'.          ",
"            W.2.v.c.2 [               i 0 F G d.s.y.p.5.Y P F F M p 9.          ",
"            A.V.J.K.c..               I.> x U             L F B , 1.s           ",
"            M.m.B.S.!.1 )               n N I             H.l x ; s.).          ",
"            z.N.J.N.!.6  .              L U ,.            |.J Y m a. X          ",
"            #.M.S.J.W.[ 3               >.a.8.              e.5.F.f ^.          ",
"            #.B.N.J.!.+.$               K i.<.              3.6.  f /.          ",
"            o.Q.S.N.!.#.3               3.F.8.              j I.  3.[.          ",
"            { Q.m.S.W.f.O               u.[.x.              0.{.  9.            ",
"            -.Y.k.Q.m.g.O.              b.{.c.              b.  ).j.            ",
"              Y.k.  ~.                K...  9.                                  ",
"                    |                     9.0.                                  ",
"                                                                                ",
"                                                                                ",
"                                                                                ",
"                                                                                "
};
